<svg width="200" height="200" viewBox="0 0 200 200" fill="none" xmlns="http://www.w3.org/2000/svg">
<circle cx="100" cy="100" r="100" fill="#F7F7F7"/>
<path d="M88.9438 58.7992L83.3062 64.4151C82.1497 65.5671 81.5 67.1296 81.5 68.7587V79.027C81.5 80.6562 82.1497 82.2186 83.3062 83.3706L88.9438 88.9865C90.1003 90.1385 91.6688 90.7857 93.3043 90.7857H106.696C108.331 90.7857 109.9 90.1385 111.056 88.9865L116.694 83.3706C117.85 82.2186 118.5 80.6562 118.5 79.027V68.7587C118.5 67.1296 117.85 65.5671 116.694 64.4151L111.056 58.7992C109.9 57.6472 108.331 57 106.696 57H93.3043C91.6688 57 90.1003 57.6472 88.9438 58.7992Z" stroke="#C4C6C9" stroke-width="7"/>
<path d="M76.6105 107.942L64.8062 119.701C63.6497 120.853 63 122.415 63 124.044V136.857C63 140.25 65.7609 143 69.1667 143H130.833C134.239 143 137 140.25 137 136.857V124.044C137 122.415 136.35 120.853 135.194 119.701L123.39 107.942C122.233 106.79 120.665 106.143 119.029 106.143H80.971C79.3355 106.143 77.767 106.79 76.6105 107.942Z" stroke="#C4C6C9" stroke-width="7"/>
</svg>
